<?xml version="1.0" encoding="utf-8"?>
<!-- Svg Vector Icons : http://www.onlinewebfonts.com/icon -->
<!DOCTYPE svg PUBLIC "-//W3C//DTD SVG 1.1//EN" "http://www.w3.org/Graphics/SVG/1.1/DTD/svg11.dtd">
<svg version="1.1" xmlns="http://www.w3.org/2000/svg" xmlns:xlink="http://www.w3.org/1999/xlink" x="0px" y="0px" viewBox="0 0 1000 1000" enable-background="new 0 0 1000 1000" xml:space="preserve">
<metadata> Svg Vector Icons : http://www.onlinewebfonts.com/icon </metadata>
<g><path d="M17.7,195.9c0,33.8,27.4,61.2,61.2,61.2s61.2-27.4,61.2-61.2c0-33.8-27.4-61.2-61.2-61.2S17.7,162.1,17.7,195.9z"/><path d="M10,499.2c0,33.8,27.4,61.3,61.3,61.3c33.8,0,61.3-27.4,61.3-61.3l0,0c0-33.8-27.4-61.3-61.3-61.3S10,465.4,10,499.2L10,499.2z"/><path d="M10,804.1c0,33.8,27.4,61.3,61.3,61.3c33.8,0,61.3-27.4,61.3-61.3l0,0c0-33.8-27.4-61.3-61.3-61.3S10,770.2,10,804.1L10,804.1z"/><path d="M990,193c0,32.3-24,58.4-53.6,58.4H301.1c-29.6,0-53.7-26.1-53.7-58.4l0,0c0-32.2,24-58.4,53.7-58.4h635.2C966,134.7,990,160.8,990,193L990,193z"/><path d="M990,496.4c0,32.2-24,58.4-53.6,58.4H301.1c-29.6,0-53.7-26.1-53.7-58.4l0,0c0-32.3,24-58.4,53.7-58.4h635.2C966,438,990,464.1,990,496.4L990,496.4z"/><path d="M990,801.1c0,32.3-24,58.4-53.6,58.4H301.1c-29.6,0-53.7-26.1-53.7-58.4l0,0c0-32.2,24-58.3,53.7-58.3h635.2C966,742.8,990,768.9,990,801.1L990,801.1z"/></g>
</svg>